<svg width="109" height="34" viewBox="0 0 109 34" fill="none" xmlns="http://www.w3.org/2000/svg">
<path d="M31.8785 30.5426C31.4949 29.6425 18.1069 1.32374 18.1069 1.32374C17.7145 0.48152 16.8768 -0.0100568 16.0065 0.000156054C15.1362 -0.0100568 14.2985 0.48152 13.9074 1.32374L4.84654 20.8112C4.74471 21.0297 4.99454 21.2435 5.19412 21.1087C6.88723 19.9615 8.7324 19.1002 10.6679 18.5426C10.8708 18.484 11.0378 18.3397 11.1275 18.1477L15.3439 9.07935C15.6066 8.51356 16.4091 8.51356 16.6718 9.07935L21.7076 19.9118C21.9724 20.4816 21.4463 21.1033 20.8441 20.929C19.2895 20.4782 17.6643 20.2399 16.0174 20.2399C12.6291 20.2399 9.35967 21.2421 6.56137 23.1376C3.83367 24.9855 1.47188 27.5652 0.193563 30.5964C-0.331883 31.8424 0.24923 33.279 1.49156 33.806C1.80181 33.9374 2.12427 34 2.44198 34C3.39376 34 4.29801 33.439 4.69176 32.5042C6.57902 28.0289 11.1729 25.1373 16.0174 25.1373C20.8618 25.1373 25.4924 28.0139 27.3878 32.466C27.66 33.106 28.1719 33.5683 28.774 33.7957C29.3592 34.0606 30.0516 34.0776 30.6789 33.7842C31.2118 33.535 31.6029 33.1054 31.8154 32.6022C32.1256 31.9806 32.1724 31.2316 31.8792 30.5426H31.8785Z" fill="url(#paint0_linear_184_252)"/>
<path d="M67.1622 27.0094C67.3117 27.2889 67.3865 27.5389 67.3865 27.7595C67.4014 27.9654 67.3416 28.1493 67.207 28.3111C67.0725 28.4581 66.8482 28.6126 66.5343 28.7744C66.0558 28.995 65.6821 29.0538 65.413 28.9509C65.1588 28.8479 64.9196 28.5611 64.6953 28.0904L59.6943 17.6992L54.7158 28.0904C54.4915 28.5464 54.2448 28.8185 53.9757 28.9067C53.7066 29.0097 53.3328 28.9582 52.8544 28.7523C52.5554 28.6052 52.3312 28.4508 52.1817 28.289C52.0471 28.1272 51.9873 27.936 52.0022 27.7154C52.0321 27.4801 52.1293 27.2006 52.2938 26.877L58.4609 14.2355C58.5805 14.0001 58.7525 13.8163 58.9767 13.6839C59.2159 13.5368 59.4626 13.4633 59.7168 13.4633C59.8962 13.4633 60.0606 13.4927 60.2101 13.5516C60.3597 13.6104 60.4942 13.6986 60.6138 13.8163C60.7484 13.934 60.8605 14.081 60.9502 14.2575L67.1622 27.0094ZM55.7025 24.8694L56.779 22.597H62.6321L63.7086 24.8694H55.7025Z" fill="#2D6893"/>
<path d="M71.0948 28.8847C70.6911 28.8847 70.3921 28.8258 70.1978 28.7082C70.0183 28.5905 69.9062 28.4287 69.8614 28.2228C69.8165 28.0022 69.7941 27.7742 69.7941 27.5389V16.8167C69.7941 16.2725 69.8688 15.7725 70.0183 15.3165C70.1679 14.8459 70.4071 14.4414 70.736 14.1031C71.0649 13.7648 71.491 13.5001 72.0143 13.3089C72.5375 13.103 73.1729 13 73.9205 13C74.1746 13 74.3989 13.0294 74.5932 13.0882C74.8026 13.1324 74.967 13.2427 75.0866 13.4192C75.2212 13.5957 75.2884 13.8972 75.2884 14.3237C75.2884 14.7208 75.2212 15.015 75.0866 15.2062C74.967 15.3974 74.8026 15.5151 74.5932 15.5592C74.3839 15.6033 74.1522 15.6254 73.898 15.6254C73.6439 15.6254 73.4196 15.6401 73.2253 15.6695C73.0459 15.6842 72.8963 15.7283 72.7767 15.8019C72.6721 15.8754 72.5899 15.9931 72.5301 16.1549C72.4852 16.3167 72.4628 16.5226 72.4628 16.7726V27.583C72.4628 27.8183 72.4329 28.039 72.3731 28.2449C72.3282 28.4361 72.2086 28.5905 72.0143 28.7082C71.8199 28.8258 71.5134 28.8847 71.0948 28.8847ZM68.8746 18.2287L71.1845 18.2508L74.2793 18.1625C74.5334 18.1625 74.7577 18.1919 74.9521 18.2508C75.1614 18.2949 75.3258 18.4126 75.4454 18.6038C75.565 18.7803 75.6248 19.0744 75.6248 19.4862C75.6248 19.8687 75.565 20.1555 75.4454 20.3467C75.3258 20.5379 75.1688 20.6629 74.9745 20.7217C74.7801 20.7658 74.5559 20.7879 74.3017 20.7879L71.2966 20.7438L68.8073 20.7658C68.4336 20.7511 68.1719 20.6482 68.0224 20.457C67.8879 20.2511 67.8206 19.9201 67.8206 19.4642C67.8206 19.0376 67.9028 18.7288 68.0673 18.5376C68.2467 18.3317 68.5158 18.2287 68.8746 18.2287Z" fill="#2D6893"/>
<path d="M80.3477 28.8847C79.944 28.8847 79.645 28.8258 79.4506 28.7082C79.2712 28.5905 79.1591 28.4287 79.1143 28.2228C79.0694 28.0022 79.047 27.7742 79.047 27.5389V16.8167C79.047 16.2725 79.1217 15.7725 79.2712 15.3165C79.4207 14.8459 79.66 14.4414 79.9889 14.1031C80.3178 13.7648 80.7439 13.5001 81.2671 13.3089C81.7904 13.103 82.4258 13 83.1734 13C83.4275 13 83.6518 13.0294 83.8461 13.0882C84.0554 13.1324 84.2199 13.2427 84.3395 13.4192C84.4741 13.5957 84.5413 13.8972 84.5413 14.3237C84.5413 14.7208 84.4741 15.015 84.3395 15.2062C84.2199 15.3974 84.0554 15.5151 83.8461 15.5592C83.6368 15.6033 83.4051 15.6254 83.1509 15.6254C82.8968 15.6254 82.6725 15.6401 82.4782 15.6695C82.2987 15.6842 82.1492 15.7283 82.0296 15.8019C81.925 15.8754 81.8427 15.9931 81.7829 16.1549C81.7381 16.3167 81.7157 16.5226 81.7157 16.7726V27.583C81.7157 27.8183 81.6858 28.039 81.626 28.2449C81.5811 28.4361 81.4615 28.5905 81.2671 28.7082C81.0728 28.8258 80.7663 28.8847 80.3477 28.8847ZM78.1275 18.2287L80.4374 18.2508L83.5322 18.1625C83.7863 18.1625 84.0106 18.1919 84.205 18.2508C84.4143 18.2949 84.5787 18.4126 84.6983 18.6038C84.8179 18.7803 84.8777 19.0744 84.8777 19.4862C84.8777 19.8687 84.8179 20.1555 84.6983 20.3467C84.5787 20.5379 84.4217 20.6629 84.2274 20.7217C84.033 20.7658 83.8088 20.7879 83.5546 20.7879L80.5495 20.7438L78.0602 20.7658C77.6865 20.7511 77.4248 20.6482 77.2753 20.457C77.1408 20.2511 77.0735 19.9201 77.0735 19.4642C77.0735 19.0376 77.1557 18.7288 77.3202 18.5376C77.4996 18.3317 77.7687 18.2287 78.1275 18.2287Z" fill="#2D6893"/>
<path d="M95.0659 28.8406C94.6324 28.8406 94.3109 28.7597 94.1016 28.5979C93.8923 28.4361 93.7877 28.2155 93.7877 27.936L93.9447 27.208C93.825 27.3992 93.6232 27.6271 93.3391 27.8919C93.0551 28.1419 92.6813 28.3699 92.2178 28.5758C91.7544 28.767 91.1937 28.8626 90.5359 28.8626C89.8332 28.8626 89.1679 28.7229 88.54 28.4434C87.927 28.1493 87.3813 27.7522 86.9029 27.2521C86.4394 26.7373 86.0657 26.1563 85.7816 25.5092C85.5125 24.8473 85.3779 24.1413 85.3779 23.3912C85.3779 22.6705 85.5125 21.994 85.7816 21.3615C86.0657 20.7144 86.4469 20.1407 86.9253 19.6407C87.4037 19.1406 87.9494 18.7508 88.5624 18.4714C89.1903 18.1772 89.8482 18.0301 90.5359 18.0301C91.1489 18.0301 91.6647 18.111 92.0833 18.2728C92.5169 18.4346 92.8832 18.6405 93.1822 18.8906C93.4812 19.1259 93.7279 19.3759 93.9222 19.6407L93.7877 19.0009C93.7877 18.6773 93.8923 18.4346 94.1016 18.2728C94.3109 18.0963 94.6399 18.0081 95.0884 18.0081C95.507 18.0081 95.806 18.0743 95.9854 18.2066C96.1648 18.3243 96.277 18.4935 96.3218 18.7141C96.3667 18.92 96.3891 19.1553 96.3891 19.4201V27.4948C96.3891 27.7448 96.3667 27.9728 96.3218 28.1787C96.277 28.3846 96.1573 28.5464 95.963 28.6641C95.7836 28.7817 95.4846 28.8406 95.0659 28.8406ZM90.9396 26.2814C91.4479 26.2814 91.9039 26.1563 92.3076 25.9063C92.7112 25.6563 93.0327 25.318 93.2719 24.8914C93.526 24.4502 93.6531 23.9648 93.6531 23.4353C93.6531 22.8617 93.526 22.3617 93.2719 21.9351C93.0177 21.5086 92.6813 21.1777 92.2627 20.9423C91.859 20.6923 91.403 20.5673 90.8947 20.5673C90.3415 20.5673 89.8482 20.6997 89.4146 20.9644C88.981 21.2144 88.6372 21.5601 88.383 22.0013C88.1438 22.4278 88.0242 22.9132 88.0242 23.4574C88.0242 23.9869 88.1513 24.4649 88.4054 24.8914C88.6596 25.318 89.0035 25.6563 89.437 25.9063C89.8856 26.1563 90.3864 26.2814 90.9396 26.2814Z" fill="#2D6893"/>
<path d="M99.9623 28.8626C99.5587 28.8626 99.2597 28.7964 99.0653 28.6641C98.8859 28.5464 98.7738 28.392 98.7289 28.2008C98.6841 27.9948 98.6616 27.7669 98.6616 27.5168V19.2656C98.6616 19.0303 98.6841 18.817 98.7289 18.6258C98.7738 18.4346 98.8934 18.2875 99.0877 18.1846C99.2821 18.0669 99.5811 18.0081 99.9848 18.0081C100.344 18.0081 100.613 18.0522 100.792 18.1405C100.972 18.2287 101.091 18.339 101.151 18.4714C101.211 18.6038 101.241 18.7361 101.241 18.8685C101.256 19.0009 101.271 19.1038 101.285 19.1774L101.196 19.8834C101.285 19.648 101.435 19.4201 101.644 19.1994C101.854 18.9788 102.108 18.7803 102.407 18.6038C102.706 18.4126 103.027 18.2655 103.371 18.1625C103.73 18.0449 104.096 17.986 104.47 17.986C105.173 17.986 105.801 18.111 106.354 18.3611C106.907 18.6111 107.378 18.9641 107.767 19.4201C108.17 19.876 108.477 20.4202 108.686 21.0526C108.895 21.6704 109 22.369 109 23.1485V27.5389C109 27.7889 108.97 28.0169 108.91 28.2228C108.865 28.414 108.753 28.5685 108.574 28.6861C108.395 28.8038 108.088 28.8626 107.654 28.8626C107.236 28.8626 106.929 28.7964 106.735 28.6641C106.541 28.5464 106.421 28.392 106.376 28.2008C106.331 27.9948 106.309 27.7669 106.309 27.5168V23.1265C106.309 22.597 106.212 22.141 106.017 21.7586C105.838 21.3762 105.569 21.0821 105.21 20.8762C104.866 20.6702 104.425 20.5673 103.887 20.5673C103.364 20.5673 102.908 20.6776 102.519 20.8982C102.13 21.1041 101.831 21.3983 101.622 21.7807C101.413 22.1631 101.308 22.6117 101.308 23.1265V27.5389C101.308 27.7889 101.285 28.0169 101.241 28.2228C101.196 28.414 101.076 28.5685 100.882 28.6861C100.702 28.8038 100.396 28.8626 99.9623 28.8626Z" fill="#2D6893"/>
<path d="M42 11V31.5" stroke="#888888" stroke-width="1.5" stroke-linecap="round"/>
<defs>
<linearGradient id="paint0_linear_184_252" x1="-0.000594012" y1="17.0004" x2="32.0747" y2="17.0004" gradientUnits="userSpaceOnUse">
<stop offset="0.03" stop-color="#0C356A"/>
<stop offset="1" stop-color="#279EFF"/>
</linearGradient>
</defs>
</svg>
