<svg width="159" height="34" viewBox="0 0 159 34" fill="none" xmlns="http://www.w3.org/2000/svg">
<path d="M30.908 32.2717C30.7589 32.782 30.4229 33.2354 29.9301 33.5157C29.338 33.8518 28.6554 33.8623 28.0807 33.6044C27.7052 33.4368 27.3766 33.1519 27.1479 32.7705V32.7701C27.1334 32.7461 27.1182 32.7231 27.1044 32.6982C26.2417 31.121 25.1974 29.7515 24.0223 28.6218C21.6112 26.308 18.6467 25.0091 15.5559 25.0091C12.4587 25.0091 9.49999 26.304 7.09275 28.6162C5.86829 29.7909 4.78737 31.2278 3.90282 32.8917C3.72533 33.2229 3.47517 33.4877 3.18249 33.6757C2.85115 33.8873 2.46692 34 2.07515 34C1.74095 34 1.40111 33.9182 1.08675 33.744C0.487276 33.4128 0.113452 32.8243 0.021872 32.1859C-0.0375921 31.7699 0.0228047 31.3336 0.220106 30.9321L0.224842 30.9235C0.233314 30.9061 0.241818 30.8887 0.251256 30.8716C2.31118 26.9973 5.25561 24.0805 8.65892 22.4012C9.16594 22.1498 9.68327 21.9274 10.2099 21.7328C11.9159 21.1033 13.7143 20.7721 15.5559 20.7721C17.3959 20.7721 19.1962 21.1053 20.9051 21.7388C21.4308 21.9333 21.9482 22.1557 22.4552 22.4071L21.7375 20.823L15.5559 7.17123L9.37533 20.8191C6.90863 21.8081 4.6373 23.3872 2.69444 25.4691L13.6699 1.22954C14.0097 0.480386 14.7461 -1.47091e-07 15.5559 -1.47091e-07C16.3651 -1.47091e-07 17.1015 0.480386 17.4413 1.22954L28.4206 25.477L30.9183 30.9938L30.891 31.0063C31.0269 31.4243 31.0269 31.8652 30.908 32.2717Z" fill="url(#paint0_linear_132_282)"/>
<path d="M32.8655 25.3421V8.80698C32.8655 8.46167 32.9875 8.16948 33.2317 7.93042C33.4758 7.69136 33.7679 7.57183 34.108 7.57183H49.1882C49.5282 7.57183 49.816 7.69578 50.0514 7.9437C50.2955 8.19162 50.4176 8.48823 50.4176 8.83354V10.082C50.4176 10.4273 50.2955 10.7239 50.0514 10.9718C49.816 11.2109 49.5282 11.3304 49.1882 11.3304H37.7963V16.0054H47.0693C47.4094 16.0054 47.6971 16.1294 47.9326 16.3773C48.1767 16.6252 48.2988 16.9174 48.2988 17.2539V18.5156C48.2988 18.8609 48.1767 19.1575 47.9326 19.4054C47.6971 19.6445 47.4094 19.764 47.0693 19.764H37.7963V25.3421C37.7963 25.7052 37.6742 26.0106 37.4301 26.2585C37.1947 26.4976 36.9069 26.6171 36.5669 26.6171H34.108C33.7679 26.6171 33.4758 26.4976 33.2317 26.2585C32.9875 26.0106 32.8655 25.7052 32.8655 25.3421Z" fill="url(#paint1_linear_132_282)"/>
<path d="M51.4901 25.3687V23.4296C51.4901 22.3052 51.7168 21.3312 52.1702 20.5078C52.6323 19.6843 53.2209 19.038 53.9359 18.5687C54.6508 18.0994 55.4443 17.6966 56.3162 17.3601C57.1882 17.0236 58.0601 16.7536 58.9321 16.55C59.8127 16.3375 60.6105 16.125 61.3255 15.9125C62.9473 15.4166 63.7582 14.7127 63.7582 13.8007C63.7582 12.8091 63.5054 12.1317 62.9997 11.7687C62.4939 11.4057 61.6394 11.2242 60.4362 11.2242H59.5075C57.8247 11.2242 56.7173 11.7687 56.1855 12.8578C55.7931 13.6901 55.2045 14.1062 54.4198 14.1062H52.8634C52.4361 14.1062 52.1048 13.9513 51.8694 13.6414C51.6339 13.3315 51.5162 12.995 51.5162 12.632C51.5162 11.6226 51.8955 10.7151 52.6541 9.90933C53.4214 9.09474 54.3718 8.48381 55.5053 8.07651C56.6389 7.66922 57.8203 7.46558 59.0498 7.46558H60.8154C64.6433 7.46558 67.0672 8.54578 68.0874 10.7062C68.4885 11.5562 68.689 12.5434 68.689 13.6679C68.689 14.7924 68.4623 15.7486 68.0089 16.5367C67.5555 17.3247 66.9713 17.9533 66.2563 18.4226C65.5414 18.883 64.7435 19.2815 63.8629 19.6179C62.9909 19.9544 62.119 20.2333 61.2471 20.4546C60.3751 20.6671 59.5817 20.8708 58.8667 21.0656C57.2361 21.526 56.4209 22.1236 56.4209 22.8585H67.2765C67.634 22.8585 67.9305 22.9825 68.1659 23.2304C68.41 23.4783 68.5321 23.775 68.5321 24.1203V25.3687C68.5321 25.714 68.4057 26.0106 68.1528 26.2585C67.9087 26.4976 67.6166 26.6171 67.2765 26.6171H52.7587C52.4187 26.6171 52.1222 26.4976 51.8694 26.2585C51.6165 26.0106 51.4901 25.714 51.4901 25.3687Z" fill="url(#paint2_linear_132_282)"/>
<path d="M73.9468 22.314C75.124 22.314 75.7125 22.9161 75.7125 24.1203V24.957C75.7125 25.5148 75.5599 25.9531 75.2547 26.2718C74.9583 26.5906 74.5223 26.75 73.9468 26.75H72.3381C71.7626 26.75 71.3223 26.5906 71.0171 26.2718C70.7207 25.9531 70.5724 25.5148 70.5724 24.957V24.1203C70.5724 23.5359 70.725 23.0888 71.0302 22.7789C71.3354 22.469 71.7713 22.314 72.3381 22.314H73.9468Z" fill="url(#paint3_linear_132_282)"/>
<path d="M77.0597 10.082V8.83354C77.0597 8.47052 77.1774 8.16948 77.4128 7.93042C77.6482 7.69136 77.9447 7.57183 78.3022 7.57183H94.8995C95.257 7.57183 95.5535 7.69136 95.7889 7.93042C96.0243 8.16948 96.142 8.47052 96.142 8.83354V10.082C96.142 10.445 96.0243 10.746 95.7889 10.9851C95.5535 11.2153 95.257 11.3304 94.8995 11.3304H89.0662V25.3953C89.0662 25.7406 88.9442 26.0328 88.7 26.2718C88.4646 26.502 88.1769 26.6171 87.8368 26.6171H85.3649C85.0248 26.6171 84.7327 26.502 84.4886 26.2718C84.2531 26.0328 84.1354 25.7406 84.1354 25.3953V11.3304H78.3022C77.9447 11.3304 77.6482 11.2153 77.4128 10.9851C77.1774 10.746 77.0597 10.445 77.0597 10.082Z" fill="url(#paint4_linear_132_282)"/>
<path d="M98.287 25.3421V8.80698C98.287 8.46167 98.4091 8.16948 98.6532 7.93042C98.8973 7.69136 99.1894 7.57183 99.5295 7.57183H114.61C114.95 7.57183 115.237 7.69578 115.473 7.9437C115.717 8.19162 115.839 8.48823 115.839 8.83354V10.082C115.839 10.4273 115.717 10.7239 115.473 10.9718C115.237 11.2109 114.95 11.3304 114.61 11.3304H103.218V15.1953H113.027C113.367 15.1953 113.655 15.3192 113.89 15.5671C114.134 15.8062 114.257 16.0984 114.257 16.4437V17.6921C114.257 18.0375 114.134 18.3341 113.89 18.582C113.655 18.821 113.367 18.9406 113.027 18.9406H103.218V22.8585H114.584C114.915 22.8585 115.198 22.9781 115.434 23.2171C115.669 23.4562 115.787 23.7484 115.787 24.0937V25.3687C115.787 25.714 115.665 26.0106 115.421 26.2585C115.176 26.4976 114.884 26.6171 114.544 26.6171H99.5295C99.1894 26.6171 98.8973 26.4976 98.6532 26.2585C98.4091 26.0106 98.287 25.7052 98.287 25.3421Z" fill="url(#paint5_linear_132_282)"/>
<path d="M119.593 24.3726C117.98 22.8054 117.173 20.3838 117.173 17.1078C117.173 13.8229 117.98 11.3968 119.593 9.82964C121.215 8.2536 123.643 7.46558 126.878 7.46558H129.794C131.774 7.46558 133.522 7.98797 135.039 9.03276C136.565 10.0776 137.328 11.5075 137.328 13.3226C137.328 13.845 137.175 14.2213 136.87 14.4515C136.565 14.6729 136.269 14.7835 135.981 14.7835H134.424C133.622 14.7835 132.999 14.2966 132.554 13.3226C131.909 11.9236 130.836 11.2242 129.337 11.2242H127.009C125.099 11.2242 123.804 11.6403 123.124 12.4726C122.444 13.3049 122.104 14.8455 122.104 17.0945C122.104 19.3434 122.444 20.8885 123.124 21.7296C123.804 22.5619 125.099 22.9781 127.009 22.9781H129.611C131.111 22.9781 132.179 22.2786 132.816 20.8796C133.26 19.8968 133.888 19.4054 134.699 19.4054H136.256C136.665 19.4054 136.988 19.5604 137.223 19.8703C137.468 20.1802 137.59 20.5166 137.59 20.8796C137.59 22.6947 136.831 24.1247 135.314 25.1695C133.797 26.2054 132.048 26.7234 130.069 26.7234H126.878C123.643 26.7234 121.215 25.9398 119.593 24.3726Z" fill="url(#paint6_linear_132_282)"/>
<path d="M140.14 25.3687V8.83354C140.14 8.48823 140.262 8.19162 140.506 7.9437C140.75 7.69578 141.051 7.57183 141.409 7.57183H143.841C144.181 7.57183 144.469 7.69578 144.705 7.9437C144.949 8.19162 145.071 8.48823 145.071 8.83354V14.8101H154.069V8.83354C154.069 8.48823 154.191 8.19162 154.435 7.9437C154.68 7.69578 154.972 7.57183 155.312 7.57183H157.744C158.102 7.57183 158.398 7.69578 158.634 7.9437C158.878 8.19162 159 8.48823 159 8.83354V25.3687C159 25.714 158.874 26.0106 158.621 26.2585C158.377 26.4976 158.084 26.6171 157.744 26.6171H155.312C154.972 26.6171 154.68 26.502 154.435 26.2718C154.191 26.0328 154.069 25.7406 154.069 25.3953V18.5687H145.071V25.3953C145.071 25.7406 144.949 26.0328 144.705 26.2718C144.469 26.502 144.181 26.6171 143.841 26.6171H141.409C141.069 26.6171 140.772 26.4976 140.519 26.2585C140.266 26.0106 140.14 25.714 140.14 25.3687Z" fill="url(#paint7_linear_132_282)"/>
<defs>
<linearGradient id="paint0_linear_132_282" x1="-1.48427" y1="16.9999" x2="30.9952" y2="16.9999" gradientUnits="userSpaceOnUse">
<stop offset="0.0260229" stop-color="#0C356A"/>
<stop offset="1" stop-color="#279EFF"/>
</linearGradient>
<linearGradient id="paint1_linear_132_282" x1="26.8252" y1="17.1078" x2="159" y2="17.1078" gradientUnits="userSpaceOnUse">
<stop offset="0.0260229" stop-color="#0C356A"/>
<stop offset="1" stop-color="#279EFF"/>
</linearGradient>
<linearGradient id="paint2_linear_132_282" x1="26.8252" y1="17.1078" x2="159" y2="17.1078" gradientUnits="userSpaceOnUse">
<stop offset="0.0260229" stop-color="#0C356A"/>
<stop offset="1" stop-color="#279EFF"/>
</linearGradient>
<linearGradient id="paint3_linear_132_282" x1="26.8252" y1="17.1078" x2="159" y2="17.1078" gradientUnits="userSpaceOnUse">
<stop offset="0.0260229" stop-color="#0C356A"/>
<stop offset="1" stop-color="#279EFF"/>
</linearGradient>
<linearGradient id="paint4_linear_132_282" x1="26.8252" y1="17.1078" x2="159" y2="17.1078" gradientUnits="userSpaceOnUse">
<stop offset="0.0260229" stop-color="#0C356A"/>
<stop offset="1" stop-color="#279EFF"/>
</linearGradient>
<linearGradient id="paint5_linear_132_282" x1="26.8252" y1="17.1078" x2="159" y2="17.1078" gradientUnits="userSpaceOnUse">
<stop offset="0.0260229" stop-color="#0C356A"/>
<stop offset="1" stop-color="#279EFF"/>
</linearGradient>
<linearGradient id="paint6_linear_132_282" x1="26.8252" y1="17.1078" x2="159" y2="17.1078" gradientUnits="userSpaceOnUse">
<stop offset="0.0260229" stop-color="#0C356A"/>
<stop offset="1" stop-color="#279EFF"/>
</linearGradient>
<linearGradient id="paint7_linear_132_282" x1="26.8252" y1="17.1078" x2="159" y2="17.1078" gradientUnits="userSpaceOnUse">
<stop offset="0.0260229" stop-color="#0C356A"/>
<stop offset="1" stop-color="#279EFF"/>
</linearGradient>
</defs>
</svg>
