<svg width="42" height="42" viewBox="0 0 42 42" fill="none" xmlns="http://www.w3.org/2000/svg">
<path d="M21 17.5C22.933 17.5 24.5 19.067 24.5 21C24.5 22.933 22.933 24.5 21 24.5C19.067 24.5 17.5 22.933 17.5 21C17.5 19.067 19.067 17.5 21 17.5Z" fill="#666666"/>
<path d="M10.5 17.5C12.433 17.5 14 19.067 14 21C14 22.933 12.433 24.5 10.5 24.5C8.567 24.5 7 22.933 7 21C7 19.067 8.567 17.5 10.5 17.5Z" fill="#666666"/>
<path d="M31.5 17.5C33.433 17.5 35 19.067 35 21C35 22.933 33.433 24.5 31.5 24.5C29.567 24.5 28 22.933 28 21C28 19.067 29.567 17.5 31.5 17.5Z" fill="#666666"/>
</svg>
