<svg width="30" height="30" viewBox="0 0 30 30" fill="none" xmlns="http://www.w3.org/2000/svg">
<circle cx="15" cy="15" r="15" fill="#666666"/>
<path d="M20.416 11.1838C19.3768 11.2017 18.3756 11.5704 17.5807 12.2279C16.7858 12.8853 16.2458 13.7914 16.0513 14.7939C15.0754 13.3048 14.3111 11.692 13.7793 10H11.5272V15.87C11.5272 16.4253 11.3025 16.9578 10.9026 17.3504C10.5026 17.7431 9.9602 17.9637 9.39462 17.9637C8.82904 17.9637 8.28662 17.7431 7.88669 17.3504C7.48676 16.9578 7.26208 16.4253 7.26208 15.87V10L5 10.0489V15.9189C5.00661 17.0606 5.4749 18.1529 6.30185 18.9556C7.12881 19.7583 8.24668 20.2056 9.40957 20.1992C10.5724 20.1927 11.6851 19.7329 12.5027 18.9211C13.3203 18.1092 13.7759 17.0117 13.7693 15.87V14.8917C14.2474 15.8124 14.7971 16.6955 15.4136 17.5332L14.0384 24H16.3503L17.3468 19.2942C18.2703 19.8769 19.3482 20.1797 20.4459 20.1649C21.6538 20.1649 22.8121 19.6939 23.6661 18.8554C24.5202 18.0169 25 16.8797 25 15.6939C25 14.5081 24.5202 13.3709 23.6661 12.5324C22.8121 11.694 21.6538 11.2229 20.4459 11.2229L20.416 11.1838ZM20.416 17.8658C19.4797 17.8361 18.5823 17.4906 17.8749 16.8875L18.1041 15.9972V15.9483C18.2636 14.97 18.7618 13.4046 20.4459 13.4046C20.7412 13.402 21.0341 13.4567 21.3078 13.5656C21.5815 13.6745 21.8306 13.8353 22.0408 14.0389C22.2509 14.2426 22.4181 14.4849 22.5326 14.7522C22.6471 15.0194 22.7067 15.3062 22.708 15.5961C22.6867 16.1831 22.4429 16.7411 22.0245 17.1609C21.6061 17.5807 21.0432 17.8321 20.4459 17.8658H20.416Z" fill="white"/>
</svg>
